<?xml version="1.0" encoding="UTF-8" standalone="no"?>
<!-- Created with Inkscape (http://www.inkscape.org/) -->

<svg
   width="186.5mm"
   height="55mm"
   viewBox="0 0 186.5 54.999999"
   version="1.1"
   id="svg241"
   xml:space="preserve"
   inkscape:version="1.2.2 (b0a8486541, 2022-12-01)"
   sodipodi:docname="nutritaria_logo_prov_inkscape.svg"
   xmlns:inkscape="http://www.inkscape.org/namespaces/inkscape"
   xmlns:sodipodi="http://sodipodi.sourceforge.net/DTD/sodipodi-0.dtd"
   xmlns="http://www.w3.org/2000/svg"
   xmlns:svg="http://www.w3.org/2000/svg"><sodipodi:namedview
     id="namedview243"
     pagecolor="#ffffff"
     bordercolor="#000000"
     borderopacity="0.25"
     inkscape:showpageshadow="2"
     inkscape:pageopacity="0.0"
     inkscape:pagecheckerboard="0"
     inkscape:deskcolor="#d1d1d1"
     inkscape:document-units="mm"
     showgrid="false"
     showguides="true"
     inkscape:zoom="0.9814281"
     inkscape:cx="364.77456"
     inkscape:cy="90.174716"
     inkscape:window-width="1920"
     inkscape:window-height="1003"
     inkscape:window-x="0"
     inkscape:window-y="0"
     inkscape:window-maximized="1"
     inkscape:current-layer="layer1"><sodipodi:guide
       position="9.1501926,-0.1870973"
       orientation="0,-1"
       id="guide1335"
       inkscape:locked="false" /><sodipodi:guide
       position="186.05391,27.07285"
       orientation="1,0"
       id="guide1337"
       inkscape:locked="false" /></sodipodi:namedview><defs
     id="defs238"><rect
       x="262.25748"
       y="456.78915"
       width="714.72369"
       height="100.86826"
       id="rect367" /><rect
       x="160.98718"
       y="237.09021"
       width="468.32635"
       height="374.66107"
       id="rect171" /></defs><g
     inkscape:label="Layer 1"
     inkscape:groupmode="layer"
     id="layer1"><g
       id="g1331"
       transform="translate(-84.102108,-80.857014)"><g
         aria-label="nutritaria"
         transform="matrix(1.0325644,0,0,1.0325644,-84.927322,-170.4911)"
         id="text169"
         style="font-weight:bold;font-size:42.6667px;font-family:Cantarell;-inkscape-font-specification:'Cantarell, Bold';white-space:pre;shape-inside:url(#rect171);display:inline"><path
           d="m 177.75434,275.40507 h 5.41867 v -12.80001 c 0,-5.12 -2.90133,-8.27733 -7.552,-8.27733 -2.51734,0 -4.86401,0.896 -6.69868,2.60266 l -0.93866,-2.26133 h -3.92534 v 20.73601 h 5.46134 v -14.84801 c 1.23733,-0.98133 2.64533,-1.49333 4.224,-1.49333 2.64534,0 4.01067,1.49333 4.01067,4.30934 z"
           id="path1373" /><path
           d="m 195.80236,275.74641 c 2.432,0 4.73601,-0.93867 6.48534,-2.60267 l 0.98133,2.26133 h 3.88267 v -20.73601 h -5.46133 v 14.89068 c -1.152,0.93866 -2.47467,1.45066 -3.88267,1.45066 -2.94401,0 -3.84001,-2.26133 -3.84001,-4.30933 v -12.03201 h -5.41867 v 13.22668 c 0,4.77867 2.94401,7.85067 7.25334,7.85067 z"
           id="path1375" /><path
           d="m 221.53035,275.70374 c 1.408,0 2.944,-0.29867 4.26667,-0.72533 l -1.10934,-3.88267 c -0.59733,0.256 -1.32267,0.384 -1.96267,0.384 -1.96266,0 -3.2,-1.152 -3.2,-2.944 v -9.51468 h 5.20534 v -4.352 h -5.20534 v -6.01601 h -5.376 v 6.01601 h -2.90134 v 4.352 h 2.90134 v 9.85601 c 0,4.18134 2.77333,6.82667 7.38134,6.82667 z"
           id="path1377" /><path
           d="m 229.63699,275.40507 h 5.46134 V 261.9224 c 1.23733,-1.49334 2.98667,-2.34667 4.90667,-2.34667 0.85333,0 1.87733,0.17067 2.64533,0.46933 l 1.23734,-4.992 c -0.85334,-0.384 -1.96267,-0.59733 -3.07201,-0.59733 -2.47466,0 -4.736,1.19466 -6.31467,3.28533 l -0.512,-3.072 h -4.352 z"
           id="path1379" /><path
           d="m 247.13033,275.40507 h 5.46134 v -20.73601 h -5.46134 z m 2.77333,-24.57601 c 2.00534,0 3.32801,-1.28 3.32801,-3.32801 0,-2.048 -1.32267,-3.37067 -3.32801,-3.37067 -2.048,0 -3.37066,1.32267 -3.37066,3.37067 0,2.04801 1.32266,3.32801 3.37066,3.32801 z"
           id="path1381" /><path
           d="m 266.97032,275.70374 c 1.408,0 2.944,-0.29867 4.26667,-0.72533 l -1.10934,-3.88267 c -0.59733,0.256 -1.32266,0.384 -1.96266,0.384 -1.96267,0 -3.20001,-1.152 -3.20001,-2.944 v -9.51468 h 5.20534 v -4.352 h -5.20534 v -6.01601 h -5.376 v 6.01601 h -2.90134 v 4.352 h 2.90134 v 9.85601 c 0,4.18134 2.77333,6.82667 7.38134,6.82667 z"
           id="path1383" /><path
           d="m 288.0903,275.40507 h 3.92534 V 262.9464 c 0,-5.63201 -3.2,-8.70401 -9.34401,-8.70401 -2.944,0 -6.144,0.72534 -8.576,2.00534 l 1.28,3.79733 c 2.176,-0.85333 4.224,-1.28 6.144,-1.28 3.32801,0 5.12001,1.28 5.12001,3.75467 v 0.55467 c -8.96001,0.128 -12.92801,2.176 -12.92801,6.57067 0,3.75467 2.77333,6.18667 7.168,6.18667 2.64534,0 4.86401,-0.85333 6.44267,-2.47467 z m -1.45066,-5.33333 c -1.024,0.93866 -2.38934,1.49333 -3.96801,1.49333 -2.09066,0 -3.49867,-1.06667 -3.49867,-2.64533 0,-1.87734 2.13334,-2.73067 7.46668,-2.81601 z"
           id="path1385" /><path
           d="m 297.73298,275.40507 h 5.46134 V 261.9224 c 1.23733,-1.49334 2.98667,-2.34667 4.90667,-2.34667 0.85333,0 1.87733,0.17067 2.64534,0.46933 l 1.23733,-4.992 c -0.85333,-0.384 -1.96267,-0.59733 -3.072,-0.59733 -2.47467,0 -4.73601,1.19466 -6.31467,3.28533 l -0.512,-3.072 h -4.35201 z"
           id="path1387" /><path
           d="m 315.22633,275.40507 h 5.46134 v -20.73601 h -5.46134 z m 2.77334,-24.57601 c 2.00533,0 3.328,-1.28 3.328,-3.32801 0,-2.048 -1.32267,-3.37067 -3.328,-3.37067 -2.04801,0 -3.37067,1.32267 -3.37067,3.37067 0,2.04801 1.32266,3.32801 3.37067,3.32801 z"
           id="path1389" /><path
           d="m 339.84499,275.40507 h 3.92534 V 262.9464 c 0,-5.63201 -3.20001,-8.70401 -9.34401,-8.70401 -2.944,0 -6.14401,0.72534 -8.57601,2.00534 l 1.28,3.79733 c 2.176,-0.85333 4.22401,-1.28 6.14401,-1.28 3.328,0 5.12,1.28 5.12,3.75467 v 0.55467 c -8.96001,0.128 -12.92801,2.176 -12.92801,6.57067 0,3.75467 2.77334,6.18667 7.16801,6.18667 2.64533,0 4.864,-0.85333 6.44267,-2.47467 z m -1.45067,-5.33333 c -1.024,0.93866 -2.38933,1.49333 -3.968,1.49333 -2.09067,0 -3.49867,-1.06667 -3.49867,-2.64533 0,-1.87734 2.13333,-2.73067 7.46667,-2.81601 z"
           id="path1391" /></g><g
         aria-label="    lifestyle medicine    "
         transform="matrix(0.26458333,0,0,0.26458333,22.901625,-0.89334313)"
         id="text365"
         style="font-weight:600;font-size:53.3333px;font-family:Alegreya;-inkscape-font-specification:'Alegreya, Semi-Bold';letter-spacing:7px;white-space:pre;shape-inside:url(#rect367);display:inline"><path
           d="m 329.67118,503.8029 0.32,-2.98667 q 1.33334,-0.32 1.92,-0.85333 0.58667,-0.58667 0.69334,-1.49333 0.16,-0.96 0.16,-2.34667 v -25.17332 q 0,-1.38666 -0.26667,-1.97333 -0.21333,-0.64 -0.96,-0.8 -0.69333,-0.21333 -2.18666,-0.10667 l -0.16,-0.16 0.26666,-2.55999 q 2.50667,-0.32 4.96,-0.69334 2.50666,-0.42666 5.01333,-0.96 l 0.37333,0.90667 q -0.26666,0.64 -0.53333,2.66667 -0.21333,1.97333 -0.42667,5.11999 -0.16,3.09333 -0.32,7.09333 -0.16,3.94667 -0.26666,8.64 -0.0533,4.63999 -0.0533,9.65332 0,1.38667 0.37334,1.97334 0.37333,0.58666 1.28,0.58666 l 1.81333,-0.10666 0.10666,0.26666 -0.48,2.93333 q -1.27999,-0.0533 -2.93333,-0.10666 -1.6,-0.0533 -2.77333,-0.0533 -1.06666,0 -2.66666,0.16 -1.6,0.16 -3.25334,0.37334 z"
           id="path1394" /><path
           d="m 351.12448,503.85623 0.32,-2.98666 q 1.6,-0.32 2.29333,-1.12 0.74667,-0.85334 0.74667,-2.24 v -12.10666 q 0,-1.6 -0.53333,-2.29333 -0.48,-0.69334 -1.65334,-0.69334 -0.32,0 -0.8,0.10667 -0.47999,0.10667 -0.47999,0.10667 l 0.26666,-2.77334 q 1.70667,-0.21333 3.36,-0.48 1.70667,-0.32 3.04,-0.58666 1.38666,-0.26667 2.24,-0.42667 0.85333,-0.21333 0.85333,-0.21333 l 0.37333,0.85333 q -0.21333,0.53333 -0.48,2.24 -0.21333,1.70667 -0.37333,4.26666 -0.16,2.56 -0.26667,5.70667 -0.10666,3.09333 -0.10666,6.55999 0,1.33334 0.37333,1.92 0.37333,0.58667 1.33333,0.58667 0.42667,0 1.01333,-0.0533 0.64,-0.0533 0.64,-0.0533 l 0.10667,0.26667 -0.48,2.98666 q 0,0 -0.58666,-0.0533 -0.53334,0 -1.38667,-0.0533 -0.85333,0 -1.81333,-0.0533 -0.96,0 -1.76,0 -1.28,0 -2.77333,0.16 -1.44,0.16 -2.45334,0.26667 -1.01333,0.16 -1.01333,0.16 z m 5.65333,-30.71998 q -1.70666,0 -2.56,-1.01333 -0.8,-1.01334 -0.8,-2.45334 0,-1.70666 1.06667,-2.82666 1.06667,-1.12 2.82666,-1.12 1.6,0 2.45334,1.01333 0.90666,0.96 0.90666,2.45333 0,1.70667 -1.06666,2.82667 -1.06667,1.12 -2.82667,1.12 z"
           id="path1396" /><path
           d="m 373.75119,503.53623 0.37333,-2.88 q 1.54667,-0.21333 2.24,-0.96 0.74667,-0.74666 0.74667,-2.13333 v -13.06666 q -0.0533,-1.22666 -0.74667,-1.65333 -0.69333,-0.42667 -2.66667,-0.48 l -0.21333,-0.32 0.37333,-2.45333 3.25334,-0.53334 v -0.42666 q 0,-4.58667 1.59999,-7.94666 1.6,-3.36 4.53333,-5.17333 2.93334,-1.81334 6.93333,-1.81334 2.72,0 4.42667,0.53334 1.70666,0.53333 1.70666,0.53333 l 0.16,0.74667 q 0,0 -0.58666,1.28 -0.53334,1.22666 -1.17334,3.03999 l -0.64,0.21334 q 0,0 -0.74666,-0.53334 -0.74667,-0.53333 -2.08,-1.01333 -1.28,-0.48 -2.93333,-0.48 -1.92,0 -3.14667,0.90667 -1.17333,0.85333 -1.76,2.82666 -0.53333,1.92 -0.58666,5.06667 l -0.0533,2.45333 q 1.92,0 3.52,-0.0533 1.6,-0.0533 2.50667,-0.0533 0.96,-0.0533 0.96,-0.0533 l 0.21333,0.26666 -0.53333,3.36 q 0,0 -0.90667,-0.0533 -0.90666,-0.0533 -2.4,-0.0533 -1.49333,-0.0533 -3.41333,-0.0533 l -0.16,14.93333 q 0,2.61333 2.4,2.61333 1.22667,0 2.18667,-0.0533 1.01333,-0.0533 1.01333,-0.0533 l 0.16,0.21334 -0.42667,3.19999 q 0,0 -0.85333,-0.0533 -0.8,0 -2.02667,-0.0533 -1.17333,0 -2.39999,-0.0533 -1.22667,0 -2.08,0 -1.12,0 -2.34667,0 -1.17333,0.0533 -2.18666,0.10667 -0.96,0.10667 -1.6,0.10667 -0.64,0.0533 -0.64,0.0533 z"
           id="path1398" /><path
           d="m 409.60452,503.90956 q -3.62666,0 -6.29333,-1.49333 -2.61333,-1.49333 -4.05333,-4.21333 -1.44,-2.72 -1.44,-6.45333 0,-2.82666 0.90667,-5.28 0.96,-2.50666 2.66666,-4.31999 1.70667,-1.86667 3.94667,-2.93334 2.23999,-1.06666 4.85333,-1.06666 8.63999,0 8.63999,8.69333 0,0.8 -0.10667,1.65333 -0.10666,0.8 -0.21333,1.28 l -0.69333,0.58666 h -14.02666 q 0.0533,4 1.70667,6.29333 1.70666,2.24 4.69333,2.50667 3.03999,0.26667 7.09333,-1.6 l 0.37333,0.16 0.8,2.34667 q -1.12,0.8 -2.66667,1.70666 -1.54666,0.90667 -3.2,1.49333 -1.59999,0.64 -2.98666,0.64 z m -5.76,-16.15999 7.94667,-0.42666 q 0.69333,-0.10667 0.90666,-0.32 0.21333,-0.26667 0.21333,-0.96 0,-2.02667 -0.95999,-3.04 -0.96,-1.06667 -2.72,-1.06667 -2.18667,0 -3.62667,1.49334 -1.44,1.49333 -1.76,4.31999 z"
           id="path1400" /><path
           d="m 436.76451,503.90956 q -2.08,0 -3.62667,-0.37333 -1.54666,-0.32 -2.4,-0.64 -0.85333,-0.32 -0.85333,-0.32 l -0.26667,-0.53333 q 0.10667,-0.69334 0.21334,-1.97333 0.16,-1.28 0.26666,-2.66667 0.16,-1.44 0.21334,-2.4 l 2.61333,-0.26666 q 0.0533,2.93333 1.22666,4.31999 1.17334,1.33334 3.62667,1.33334 1.65333,0 2.77333,-0.69334 1.17333,-0.74666 1.17333,-1.86666 0,-0.8 -0.48,-1.44 -0.48,-0.64 -1.70666,-1.38667 -1.17333,-0.74666 -3.41333,-1.86666 -3.14667,-1.49334 -4.58667,-3.14667 -1.38666,-1.65333 -1.38666,-3.84 0,-2.34666 1.33333,-4.10666 1.38667,-1.81333 3.78666,-2.82667 2.45334,-1.06666 5.54667,-1.06666 2.50666,0 4.10666,0.48 1.65333,0.48 1.65333,0.48 l 0.21334,0.48 q 0,0 -0.16,0.96 -0.16,0.96 -0.42667,2.50666 -0.21333,1.54667 -0.37333,3.30667 l -2.72,0.16 q 0,0 0,-0.37334 0.0533,-0.42666 0.0533,-0.74666 0,-1.86667 -0.96,-2.72 -0.90666,-0.90667 -2.93333,-0.90667 -1.54666,0 -2.56,0.74667 -1.01333,0.69333 -1.01333,1.76 0,1.06666 0.90667,2.02666 0.90666,0.90667 3.04,1.97334 2.98666,1.44 4.63999,2.66666 1.70667,1.17333 2.4,2.4 0.69333,1.17333 0.69333,2.66666 0,2.18667 -1.44,4 -1.43999,1.81333 -3.83999,2.88 -2.4,1.01333 -5.33333,1.01333 z"
           id="path1402" /><path
           d="m 467.39114,503.90956 q -3.73333,0 -5.44,-1.54666 -1.70666,-1.54667 -1.70666,-5.01333 v -12.21333 q 0,-1.6 -0.58667,-2.18666 -0.58666,-0.58667 -2.34666,-0.64 l -0.37334,-0.37334 0.26667,-2.29333 q 1.6,-0.74666 3.09333,-1.70666 1.54667,-0.96 2.66667,-1.76 1.17333,-0.85334 1.86666,-1.38667 0.69333,-0.58667 0.69333,-0.58667 l 1.38667,0.64 q 0,0 -0.21333,1.17334 -0.16,1.12 -0.32,3.25333 l 6.71999,-0.16 0.21334,0.26666 -0.53334,3.36 -6.71999,-0.16 q -0.10667,2.34667 -0.21334,5.38667 -0.10666,2.98666 -0.10666,6.71999 0,2.4 0.8,3.46667 0.85333,1.01333 2.82666,1.01333 1.17333,0 2.24,-0.37333 1.06667,-0.42667 1.06667,-0.42667 l 0.64,1.6 q 0,0 -0.69334,0.58667 -0.69333,0.58666 -1.70666,1.38666 -1.01333,0.8 -1.97333,1.38667 -0.96,0.58666 -1.54667,0.58666 z"
           id="path1404" /><path
           d="m 483.61777,516.12289 q -0.32,0 -0.90667,-0.48 -0.58666,-0.42667 -1.17333,-1.12 -0.58667,-0.64 -1.01333,-1.28 -0.42667,-0.64 -0.42667,-1.01333 l 0.32,-0.58667 q 3.36,-0.21333 5.97333,-2.34666 2.66667,-2.13334 4.42666,-5.70667 -0.53333,-1.54666 -1.22666,-3.57333 -0.69333,-2.08 -1.49333,-4.26666 -0.74667,-2.24 -1.54667,-4.42667 -0.74667,-2.18666 -1.49333,-4.05333 -0.69334,-1.92 -1.22667,-3.19999 -0.53333,-1.33334 -1.33333,-1.81334 -0.8,-0.53333 -1.97333,-0.58666 l -0.10667,-0.21334 0.32,-2.66666 q 0.21333,0 1.01333,0 0.8,0 1.70667,0 0.90666,0 1.54666,0 1.28,0 2.61334,-0.0533 1.33333,-0.0533 2.45333,-0.10667 1.12,-0.0533 1.81333,-0.10667 0.69333,-0.0533 0.69333,-0.10666 l 0.10667,0.26666 -0.42667,2.66667 q -1.6,0.0533 -2.13333,0.37333 -0.53333,0.26667 -0.53333,0.96 0,0.48 0.26666,1.70667 0.32,1.17333 0.74667,2.77333 0.48,1.54666 0.96,3.25333 0.48,1.70666 0.90667,3.14666 0.48,1.44 0.74666,2.34667 0.32,0.90666 0.32,0.90666 h 0.48 q 0.85333,-2.07999 1.76,-4.37333 0.90667,-2.34666 1.65333,-4.37333 0.8,-2.08 1.28,-3.52 0.48,-1.43999 0.48,-1.81333 0,-0.64 -0.37333,-0.90666 -0.37333,-0.26667 -1.33333,-0.26667 h -1.92 l -0.16,-0.26667 0.42666,-2.66666 q 0,0 0.85334,0.0533 0.90666,0.0533 2.18666,0.10667 1.33334,0 2.56,0 0.90667,0 1.92,0 1.01333,0 1.76,0 0.8,0 1.12,0 l -0.42667,2.88 q -1.12,0.21333 -1.70666,0.8 -0.53334,0.53333 -1.06667,1.92 l -6.77333,16.37332 q -1.76,4.26666 -3.30666,7.19999 -1.54667,2.98667 -3.04,4.8 -1.44,1.81333 -2.98667,2.61333 -1.54666,0.8 -3.30666,0.74667 z"
           id="path1406" /><path
           d="m 513.55107,503.8029 0.32,-2.98667 q 1.33333,-0.32 1.92,-0.85333 0.58666,-0.58667 0.69333,-1.49333 0.16,-0.96 0.16,-2.34667 v -25.17332 q 0,-1.38666 -0.26667,-1.97333 -0.21333,-0.64 -0.96,-0.8 -0.69333,-0.21333 -2.18666,-0.10667 l -0.16,-0.16 0.26666,-2.55999 q 2.50667,-0.32 4.96,-0.69334 2.50667,-0.42666 5.01333,-0.96 l 0.37334,0.90667 q -0.26667,0.64 -0.53334,2.66667 -0.21333,1.97333 -0.42666,5.11999 -0.16,3.09333 -0.32,7.09333 -0.16,3.94667 -0.26667,8.64 -0.0533,4.63999 -0.0533,9.65332 0,1.38667 0.37333,1.97334 0.37333,0.58666 1.28,0.58666 l 1.81333,-0.10666 0.10667,0.26666 -0.48,2.93333 q -1.28,-0.0533 -2.93333,-0.10666 -1.6,-0.0533 -2.77334,-0.0533 -1.06666,0 -2.66666,0.16 -1.6,0.16 -3.25333,0.37334 z"
           id="path1408" /><path
           d="m 546.63102,503.90956 q -3.62666,0 -6.29333,-1.49333 -2.61333,-1.49333 -4.05333,-4.21333 -1.44,-2.72 -1.44,-6.45333 0,-2.82666 0.90667,-5.28 0.96,-2.50666 2.66667,-4.31999 1.70666,-1.86667 3.94666,-2.93334 2.24,-1.06666 4.85333,-1.06666 8.64,0 8.64,8.69333 0,0.8 -0.10667,1.65333 -0.10667,0.8 -0.21333,1.28 l -0.69334,0.58666 h -14.02666 q 0.0533,4 1.70667,6.29333 1.70667,2.24 4.69333,2.50667 3.04,0.26667 7.09333,-1.6 l 0.37333,0.16 0.8,2.34667 q -1.12,0.8 -2.66666,1.70666 -1.54667,0.90667 -3.2,1.49333 -1.6,0.64 -2.98667,0.64 z m -5.75999,-16.15999 7.94666,-0.42666 q 0.69333,-0.10667 0.90667,-0.32 0.21333,-0.26667 0.21333,-0.96 0,-2.02667 -0.96,-3.04 -0.96,-1.06667 -2.72,-1.06667 -2.18666,0 -3.62666,1.49334 -1.44,1.49333 -1.76,4.31999 z"
           id="path1410" /><path
           d="m 598.39103,500.7629 q 1.38666,-0.32 1.97333,-1.06667 0.64,-0.74666 0.64,-2.08 l 0.21333,-9.54666 q 0,-2.45333 -0.96,-3.67999 -0.90666,-1.22667 -2.77333,-1.22667 -1.01333,0 -2.08,0.42667 -1.01333,0.37333 -1.86666,0.90666 -0.8,0.53333 -1.28,0.90667 -0.0533,1.44 -0.16,3.30666 -0.10667,1.81333 -0.21333,3.62667 -0.0533,1.81333 -0.10667,3.25333 -0.0533,1.44 -0.0533,2.08 0,1.44 0.37333,2.02666 0.42666,0.58667 1.33333,0.58667 0.37333,0 0.96,-0.0533 0.58667,-0.0533 0.58667,-0.0533 l 0.10666,0.21334 -0.53333,3.03999 q 0,0 -0.90667,-0.0533 -0.90666,-0.0533 -2.18666,-0.10667 -1.22667,0 -2.29333,0 -1.28,0 -2.72,0 -1.38667,0.0533 -2.34667,0.10667 -0.96,0.0533 -0.96,0.0533 l 0.42667,-2.98666 q 1.54667,-0.16 2.13333,-0.74667 0.64,-0.64 0.64,-2.13333 v -11.78666 q 0,-1.81333 -0.58666,-2.50666 -0.53334,-0.69334 -2.02667,-0.69334 h -0.69333 l -0.16,-0.26666 0.21333,-2.50667 q 2.29333,-0.32 4.37333,-0.69333 2.08,-0.42667 3.41333,-0.69333 1.38667,-0.26667 1.38667,-0.26667 l 0.42666,0.48 q 0,0 -0.26666,1.12 -0.21334,1.12 -0.32,2.50666 l 0.10666,0.16 q 0.64,-0.48 1.6,-1.17333 1.01334,-0.74667 2.08,-1.44 1.06667,-0.69333 2.02667,-1.17333 0.96,-0.48 1.54666,-0.48 2.88,0 4.74667,1.12 1.86666,1.12 2.56,3.25333 0.53333,-0.42667 1.49333,-1.12 0.96,-0.74667 2.08,-1.44 1.17333,-0.74667 2.18666,-1.28 1.01334,-0.53333 1.65334,-0.53333 3.62666,0 5.70666,1.86666 2.08,1.81334 2.08,5.06667 0,0.74666 -0.16,2.4 -0.10667,1.6 -0.32,3.62666 -0.16,1.97333 -0.32,3.73333 -0.10667,1.76 -0.10667,2.82667 0,1.44 0.37333,2.08 0.42667,0.58666 1.38667,0.58666 0.48,0 1.06667,-0.0533 0.64,-0.0533 0.64,-0.0533 l 0.10666,0.21333 -0.53333,2.98666 q 0,0 -0.58667,-0.0533 -0.53333,0 -1.44,-0.0533 -0.85333,0 -1.81333,-0.0533 -0.90666,0 -1.70666,0 -0.8,0 -1.76,0.0533 -0.96,0.0533 -1.86667,0.0533 -0.85333,0.0533 -1.44,0.10667 -0.53333,0.0533 -0.53333,0.0533 l 0.32,-2.98666 q 1.33333,-0.21334 1.86666,-0.85334 0.58667,-0.64 0.58667,-2.08 l 0.16,-9.54666 q 0.0533,-2.45333 -0.90667,-3.67999 -0.95999,-1.22667 -2.82666,-1.22667 -0.96,0 -1.97333,0.37333 -0.96,0.37334 -1.81333,0.90667 -0.8,0.48 -1.33334,0.85333 l -0.64,12.37333 q 0,1.38666 0.37334,2.02666 0.42666,0.64 1.33333,0.64 0.48,0 1.01333,-0.0533 0.58667,-0.0533 0.58667,-0.0533 l 0.10666,0.21333 -0.53333,2.98666 q 0,0 -0.53333,-0.0533 -0.53333,0 -1.38667,-0.0533 -0.8,0 -1.76,-0.0533 -0.90666,0 -1.65333,0 -0.8,0 -1.81333,0.0533 -0.96,0.10666 -1.92,0.16 -0.90667,0.10666 -1.49333,0.16 -0.58667,0.10666 -0.58667,0.10666 z"
           id="path1412" /><path
           d="m 646.29768,503.90956 q -3.62666,0 -6.29333,-1.49333 -2.61333,-1.49333 -4.05333,-4.21333 -1.44,-2.72 -1.44,-6.45333 0,-2.82666 0.90667,-5.28 0.96,-2.50666 2.66666,-4.31999 1.70667,-1.86667 3.94667,-2.93334 2.24,-1.06666 4.85333,-1.06666 8.63999,0 8.63999,8.69333 0,0.8 -0.10666,1.65333 -0.10667,0.8 -0.21334,1.28 l -0.69333,0.58666 h -14.02666 q 0.0533,4 1.70667,6.29333 1.70666,2.24 4.69333,2.50667 3.04,0.26667 7.09333,-1.6 l 0.37333,0.16 0.8,2.34667 q -1.12,0.8 -2.66667,1.70666 -1.54666,0.90667 -3.19999,1.49333 -1.6,0.64 -2.98667,0.64 z m -5.76,-16.15999 7.94667,-0.42666 q 0.69333,-0.10667 0.90666,-0.32 0.21334,-0.26667 0.21334,-0.96 0,-2.02667 -0.96,-3.04 -0.96,-1.06667 -2.72,-1.06667 -2.18667,0 -3.62667,1.49334 -1.44,1.49333 -1.76,4.31999 z"
           id="path1414" /><path
           d="m 687.96431,503.90956 q -4.58666,0 -5.17333,-3.83999 l -0.32,-0.10667 q -2.61333,1.81333 -4.21333,2.77333 -1.6,0.96 -2.13333,0.96 -3.09333,0 -5.38667,-1.38667 -2.29333,-1.43999 -3.57333,-3.99999 -1.22666,-2.61334 -1.22666,-6.13333 0,-4 1.70666,-7.14667 1.76,-3.14666 4.8,-4.95999 3.04,-1.81333 6.88,-1.81333 0.69333,0 1.43999,0.0533 0.74667,0 1.54667,0.10667 v -7.41333 q 0,-1.6 -0.48,-2.24 -0.48,-0.69334 -1.65333,-0.69334 -0.37333,0 -0.85333,0.10667 -0.48,0.0533 -0.48,0.0533 l 0.32,-2.82666 q 1.75999,-0.21333 3.46666,-0.48 1.76,-0.32 3.2,-0.58667 1.44,-0.32 2.29333,-0.48 0.85333,-0.16 0.85333,-0.16 l 0.42667,0.85334 q -0.26667,0.42666 -0.53333,2.34666 -0.21334,1.86667 -0.42667,4.96 -0.21333,3.09333 -0.37333,7.09333 -0.16,3.94666 -0.26667,8.47999 -0.0533,4.48 -0.0533,9.22666 0,1.06667 0.48,1.65334 0.53333,0.58666 1.38666,0.58666 0.74667,0 1.33334,-0.26666 0.58666,-0.26667 0.95999,-0.48 0.37334,-0.26667 0.37334,-0.26667 l 0.8,1.06667 q 0,0 -0.42667,0.64 -0.37333,0.58666 -1.06667,1.49333 -0.69333,0.85333 -1.65333,1.70666 -0.90666,0.8 -1.97333,1.12 z m -10.18666,-4.74666 q 0.8,0 1.6,-0.26667 0.8,-0.32 1.44,-0.74666 0.69333,-0.42667 1.06666,-0.74667 0.42667,-0.32 0.42667,-0.32 v -13.75999 q 0,0 -1.17333,-0.48 -1.17333,-0.53333 -3.09333,-0.53333 -2.88,0 -4.48,2.08 -1.6,2.07999 -1.6,5.81332 0,2.66667 0.74667,4.69334 0.74666,2.02666 2.02666,3.14666 1.33333,1.12 3.04,1.12 z"
           id="path1416" /><path
           d="m 701.7377,503.85623 0.32,-2.98666 q 1.6,-0.32 2.29333,-1.12 0.74667,-0.85334 0.74667,-2.24 v -12.10666 q 0,-1.6 -0.53333,-2.29333 -0.48,-0.69334 -1.65334,-0.69334 -0.32,0 -0.79999,0.10667 -0.48,0.10667 -0.48,0.10667 l 0.26666,-2.77334 q 1.70667,-0.21333 3.36,-0.48 1.70667,-0.32 3.04,-0.58666 1.38666,-0.26667 2.24,-0.42667 0.85333,-0.21333 0.85333,-0.21333 l 0.37333,0.85333 q -0.21333,0.53333 -0.48,2.24 -0.21333,1.70667 -0.37333,4.26666 -0.16,2.56 -0.26667,5.70667 -0.10666,3.09333 -0.10666,6.55999 0,1.33334 0.37333,1.92 0.37333,0.58667 1.33333,0.58667 0.42667,0 1.01334,-0.0533 0.63999,-0.0533 0.63999,-0.0533 l 0.10667,0.26667 -0.48,2.98666 q 0,0 -0.58666,-0.0533 -0.53334,0 -1.38667,-0.0533 -0.85333,0 -1.81333,-0.0533 -0.96,0 -1.76,0 -1.28,0 -2.77333,0.16 -1.44,0.16 -2.45334,0.26667 -1.01333,0.16 -1.01333,0.16 z m 5.65333,-30.71998 q -1.70666,0 -2.56,-1.01333 -0.8,-1.01334 -0.8,-2.45334 0,-1.70666 1.06667,-2.82666 1.06667,-1.12 2.82667,-1.12 1.59999,0 2.45333,1.01333 0.90666,0.96 0.90666,2.45333 0,1.70667 -1.06666,2.82667 -1.06667,1.12 -2.82667,1.12 z"
           id="path1418" /><path
           d="m 735.61773,503.90956 q -3.57333,0 -6.18666,-1.49333 -2.56,-1.49333 -4,-4.21333 -1.38666,-2.72 -1.38666,-6.45333 0,-3.94666 1.65333,-6.98666 1.65333,-3.04 4.53333,-4.8 2.88,-1.81333 6.61333,-1.81333 1.92,0 3.36,0.26667 1.49333,0.26666 2.34666,0.53333 0.90667,0.26666 0.90667,0.26666 l 0.16,0.48 q 0,0 -0.26667,1.06667 -0.21333,1.06667 -0.48,2.93333 -0.26666,1.81333 -0.37333,4 l -3.09333,0.16 v -1.70667 q 0,-1.91999 -0.96,-2.93333 -0.96,-1.06666 -2.66667,-1.06666 -2.71999,0 -4.15999,1.97333 -1.38667,1.97333 -1.38667,5.65333 0,4.48 1.6,6.93333 1.65333,2.4 4.69333,2.4 1.44,0 2.77333,-0.42667 1.33333,-0.42667 2.13333,-0.8 0.85334,-0.42667 0.85334,-0.42667 l 0.37333,0.16 0.8,2.45334 q 0,0 -0.8,0.58666 -0.74667,0.53334 -1.97333,1.33333 -1.22667,0.74667 -2.61333,1.33334 -1.33334,0.58666 -2.45334,0.58666 z"
           id="path1420" /><path
           d="m 754.08444,503.85623 0.32,-2.98666 q 1.6,-0.32 2.29333,-1.12 0.74667,-0.85334 0.74667,-2.24 v -12.10666 q 0,-1.6 -0.53333,-2.29333 -0.48,-0.69334 -1.65333,-0.69334 -0.32,0 -0.8,0.10667 -0.48,0.10667 -0.48,0.10667 l 0.26666,-2.77334 q 1.70667,-0.21333 3.36,-0.48 1.70667,-0.32 3.04,-0.58666 1.38666,-0.26667 2.24,-0.42667 0.85333,-0.21333 0.85333,-0.21333 l 0.37333,0.85333 q -0.21333,0.53333 -0.48,2.24 -0.21333,1.70667 -0.37333,4.26666 -0.16,2.56 -0.26667,5.70667 -0.10666,3.09333 -0.10666,6.55999 0,1.33334 0.37333,1.92 0.37333,0.58667 1.33333,0.58667 0.42667,0 1.01334,-0.0533 0.64,-0.0533 0.64,-0.0533 l 0.10666,0.26667 -0.48,2.98666 q 0,0 -0.58666,-0.0533 -0.53334,0 -1.38667,-0.0533 -0.85333,0 -1.81333,-0.0533 -0.96,0 -1.76,0 -1.28,0 -2.77333,0.16 -1.44,0.16 -2.45333,0.26667 -1.01334,0.16 -1.01334,0.16 z m 5.65333,-30.71998 q -1.70666,0 -2.56,-1.01333 -0.8,-1.01334 -0.8,-2.45334 0,-1.70666 1.06667,-2.82666 1.06667,-1.12 2.82667,-1.12 1.59999,0 2.45333,1.01333 0.90666,0.96 0.90666,2.45333 0,1.70667 -1.06666,2.82667 -1.06667,1.12 -2.82667,1.12 z"
           id="path1422" /><path
           d="m 791.96447,500.7629 q 1.38667,-0.32 1.97333,-1.06667 0.64,-0.74666 0.69334,-2.08 l 0.16,-9.54666 q 0,-2.45333 -0.96,-3.67999 -0.90667,-1.22667 -2.77333,-1.22667 -0.96,0 -2.02667,0.42667 -1.01333,0.37333 -1.86666,0.90666 -0.8,0.53333 -1.28,0.90667 -0.10667,1.38666 -0.21334,3.25333 -0.0533,1.81333 -0.16,3.68 -0.0533,1.81333 -0.10666,3.25333 -0.0533,1.44 -0.0533,2.08 0,1.44 0.37334,2.02666 0.37333,0.58667 1.33333,0.58667 0.37333,0 0.90666,-0.0533 0.58667,-0.0533 0.58667,-0.0533 l 0.16,0.21334 -0.53333,3.03999 q 0,0 -0.96,-0.0533 -0.90667,-0.0533 -2.18667,-0.10667 -1.22666,0 -2.24,0 -1.33333,0 -2.71999,0.0533 -1.38667,0.10666 -2.4,0.16 -0.96,0.10666 -0.96,0.10666 l 0.42666,-2.98666 q 1.54667,-0.21333 2.13334,-0.85333 0.64,-0.69334 0.64,-2.18667 V 485.7763 q 0,-1.81333 -0.58667,-2.50666 -0.53333,-0.69334 -2.02667,-0.69334 h -0.64 l -0.21333,-0.26666 0.26667,-2.50667 q 2.24,-0.32 4.32,-0.69333 2.13333,-0.42667 3.46666,-0.69333 1.33333,-0.26667 1.33333,-0.26667 l 0.42667,0.48 q 0,0 -0.26667,1.12 -0.21333,1.12 -0.32,2.50666 l 0.21334,0.21334 q 0.58666,-0.48 1.54666,-1.22667 0.96,-0.74667 2.02667,-1.44 1.06666,-0.69333 2.02666,-1.17333 0.96,-0.48 1.54667,-0.48 3.68,0 5.70666,1.86666 2.08,1.81334 2.08,5.06667 0,0.74666 -0.16,2.4 -0.10667,1.6 -0.26667,3.62666 -0.16,1.97333 -0.32,3.73333 -0.10666,1.76 -0.10666,2.82667 0,1.38666 0.37333,2.02666 0.37333,0.64 1.33333,0.64 0.48,0 1.06667,-0.0533 0.64,-0.0533 0.64,-0.0533 l 0.10667,0.21333 -0.48,2.98666 q 0,0 -0.58667,-0.0533 -0.53333,0 -1.38667,-0.0533 -0.85333,0 -1.81333,-0.0533 -0.90666,0 -1.70666,0 -0.8,0 -1.81334,0.0533 -0.96,0.10666 -1.92,0.16 -0.90666,0.10666 -1.49333,0.16 -0.58666,0.10666 -0.58666,0.10666 z"
           id="path1424" /><path
           d="m 824.93782,503.90956 q -3.62667,0 -6.29333,-1.49333 -2.61333,-1.49333 -4.05333,-4.21333 -1.44,-2.72 -1.44,-6.45333 0,-2.82666 0.90666,-5.28 0.96,-2.50666 2.66667,-4.31999 1.70666,-1.86667 3.94666,-2.93334 2.24,-1.06666 4.85333,-1.06666 8.64,0 8.64,8.69333 0,0.8 -0.10667,1.65333 -0.10666,0.8 -0.21333,1.28 l -0.69333,0.58666 h -14.02666 q 0.0533,4 1.70666,6.29333 1.70667,2.24 4.69333,2.50667 3.04,0.26667 7.09333,-1.6 l 0.37334,0.16 0.8,2.34667 q -1.12,0.8 -2.66667,1.70666 -1.54667,0.90667 -3.2,1.49333 -1.6,0.64 -2.98666,0.64 z m -5.76,-16.15999 7.94666,-0.42666 q 0.69334,-0.10667 0.90667,-0.32 0.21333,-0.26667 0.21333,-0.96 0,-2.02667 -0.96,-3.04 -0.96,-1.06667 -2.72,-1.06667 -2.18666,0 -3.62666,1.49334 -1.44,1.49333 -1.76,4.31999 z"
           id="path1426" /></g><path
         id="path1321"
         style="fill:#000000;stroke-width:0.111999"
         d="m 84.474212,124.82225 c -0.696867,0.70312 -0.696867,0.70312 0.0064,1.40001 0.386718,0.38326 0.760427,0.69686 0.83046,0.69686 0.07004,0 0.387517,-0.32696 0.705513,-0.7266 0.578169,-0.72659 0.578169,-0.72659 0.04914,-1.39997 -0.290976,-0.37038 -0.611267,-0.67341 -0.711758,-0.67341 -0.100492,0 -0.496303,0.3164 -0.879581,0.70311 z m 1.99217,1.72436 c -0.599348,0.74792 -0.599348,0.74792 0.06391,1.34126 0.364792,0.32633 0.75023,0.59456 0.856532,0.59607 0.193909,0.003 1.087691,-1.25715 1.092357,-1.53976 0.0042,-0.25178 -0.906979,-1.14551 -1.167805,-1.14551 -0.168486,0 -0.433865,0.235 -0.844984,0.74794 z m 19.350828,0.22952 c -0.37165,0.039 -0.42372,0.084 -0.48698,0.42128 -0.0498,0.26527 -0.0102,0.47986 0.1323,0.72144 0.23753,0.4021 0.23982,0.40245 0.9518,0.14949 0.53313,-0.18939 0.54702,-0.20594 0.54702,-0.64956 0,-0.25045 -0.0605,-0.51582 -0.13439,-0.5897 -0.13336,-0.13344 -0.2077,-0.13724 -1.00974,-0.0531 z m -16.734972,0.45241 c -0.131083,0.0847 -0.93591,1.37103 -0.936424,1.49663 -1.59e-4,0.0387 0.276257,0.28373 0.614261,0.5445 0.827731,0.63859 1.028225,0.58283 1.491836,-0.41501 0.351831,-0.75725 0.351831,-0.75725 -0.116597,-1.23455 -0.445026,-0.45343 -0.770299,-0.5744 -1.053076,-0.39157 z m 15.135132,0.75328 c -0.0616,0.0213 -0.24503,0.0666 -0.40764,0.10228 -0.42588,0.0933 -0.45857,0.31557 -0.14932,1.01489 0.27355,0.61852 0.27355,0.61852 0.91367,0.33544 0.76213,-0.33705 0.70129,-0.28487 0.72949,-0.62565 0.0472,-0.57054 -0.53226,-1.01165 -1.0862,-0.82688 z m -13.451066,1.03087 c -0.178645,0.41243 -0.337297,0.77784 -0.352565,0.812 -0.01532,0.0343 0.221504,0.23192 0.526175,0.43964 0.455735,0.31062 0.620519,0.36505 0.929505,0.30709 0.353128,-0.0663 0.389248,-0.1169 0.604614,-0.84824 0.229045,-0.7778 0.229045,-0.7778 -0.123075,-1.11909 -0.274771,-0.26634 -0.451835,-0.3413 -0.805991,-0.3413 -0.452951,0 -0.45451,0.002 -0.778658,0.7499 z m 11.398576,-0.13059 c -0.32807,0.08 -0.62144,0.17029 -0.65193,0.20099 -0.0571,0.0571 0.38573,1.64487 0.45875,1.64487 0.18173,0 1.51768,-0.68926 1.51768,-0.78305 0,-0.18776 -0.55389,-1.23443 -0.64588,-1.22055 -0.0451,0.007 -0.35054,0.0779 -0.67862,0.15778 z m -8.543814,0.13391 c -0.395695,0.0421 -0.409565,0.0602 -0.644648,0.84215 -0.132148,0.43952 -0.198831,0.82748 -0.148186,0.86215 0.79544,0.54455 0.902535,0.58041 1.341184,0.44899 0.433831,-0.12991 0.434091,-0.13037 0.542036,-0.91142 0.107613,-0.77859 0.106836,-0.78233 -0.213585,-1.05194 -0.17687,-0.14879 -0.355506,-0.26213 -0.396982,-0.25177 -0.04148,0.01 -0.257383,0.0383 -0.479803,0.0619 z m 6.452354,0.40693 c -0.308008,0.0716 -0.551926,0.1802 -0.54205,0.24125 0.01,0.0612 0.05142,0.42401 0.0924,0.80631 0.09193,0.85863 0.246745,0.93556 1.16573,0.57921 0.65555,-0.25419 0.65555,-0.25419 0.44573,-0.98789 -0.1154,-0.40355 -0.20981,-0.74648 -0.20981,-0.76207 0,-0.0564 -0.40345,-0.004 -0.95199,0.12327 z m -4.304301,0.0592 c -0.413947,0.0746 -0.465053,0.17051 -0.611855,1.14956 -0.0758,0.5056 -0.06917,0.52073 0.33361,0.75837 0.379399,0.2239 0.446459,0.23075 0.872776,0.0891 0.461793,-0.15351 0.461793,-0.15351 0.535402,-0.9286 0.06557,-0.69052 0.04895,-0.79644 -0.152401,-0.97105 -0.234476,-0.20336 -0.33393,-0.21327 -0.977532,-0.0973 z m 2.148316,0.14143 c -0.475997,0.10888 -0.475997,0.10888 -0.475997,0.88377 0,0.69918 0.02682,0.79239 0.275082,0.95504 0.255494,0.16744 0.317309,0.16439 0.867993,-0.0415 0.592908,-0.22177 0.592908,-0.22177 0.554636,-0.73983 -0.08675,-1.17455 -0.217156,-1.28743 -1.221714,-1.0575 z" /><path
         id="path1324"
         style="fill:#000000;stroke-width:0.111999"
         d="m 269.27189,125.38145 c 0.69686,0.70312 0.69686,0.70312 -0.006,1.40001 -0.38672,0.38326 -0.76043,0.69686 -0.83046,0.69686 -0.07,0 -0.38752,-0.32696 -0.70552,-0.7266 -0.57816,-0.72659 -0.57816,-0.72659 -0.0491,-1.39997 0.29098,-0.37038 0.61127,-0.67341 0.71176,-0.67341 0.10049,0 0.49631,0.3164 0.87958,0.70311 z m -1.99217,1.72436 c 0.59935,0.74792 0.59935,0.74792 -0.0639,1.34126 -0.36479,0.32633 -0.75023,0.59456 -0.85653,0.59607 -0.19391,0.003 -1.0877,-1.25715 -1.09236,-1.53976 -0.004,-0.25178 0.90698,-1.14551 1.1678,-1.14551 0.16849,0 0.43387,0.235 0.84499,0.74794 z m -19.35083,0.22952 c 0.37165,0.039 0.42372,0.084 0.48698,0.42128 0.0498,0.26527 0.0102,0.47986 -0.1323,0.72144 -0.23753,0.4021 -0.23982,0.40245 -0.9518,0.14949 -0.53313,-0.18939 -0.54702,-0.20594 -0.54702,-0.64956 0,-0.25045 0.0605,-0.51582 0.13439,-0.5897 0.13336,-0.13344 0.2077,-0.13724 1.00974,-0.0531 z m 16.73497,0.45241 c 0.13108,0.0847 0.93591,1.37103 0.93643,1.49663 1.5e-4,0.0387 -0.27626,0.28373 -0.61427,0.5445 -0.82773,0.63859 -1.02822,0.58283 -1.49183,-0.41501 -0.35183,-0.75725 -0.35183,-0.75725 0.1166,-1.23455 0.44502,-0.45343 0.77029,-0.5744 1.05307,-0.39157 z m -15.13513,0.75328 c 0.0616,0.0213 0.24503,0.0666 0.40764,0.10228 0.42588,0.0933 0.45857,0.31557 0.14932,1.01489 -0.27355,0.61852 -0.27355,0.61852 -0.91367,0.33544 -0.76213,-0.33705 -0.70129,-0.28487 -0.72949,-0.62565 -0.0472,-0.57054 0.53226,-1.01165 1.0862,-0.82688 z m 13.45107,1.03087 c 0.17864,0.41243 0.33729,0.77784 0.35256,0.812 0.0153,0.0343 -0.2215,0.23192 -0.52617,0.43964 -0.45574,0.31062 -0.62052,0.36505 -0.92951,0.30709 -0.35313,-0.0663 -0.38925,-0.1169 -0.60461,-0.84824 -0.22905,-0.7778 -0.22905,-0.7778 0.12307,-1.11909 0.27477,-0.26634 0.45184,-0.3413 0.80599,-0.3413 0.45295,0 0.45451,0.002 0.77866,0.7499 z m -11.39858,-0.13059 c 0.32807,0.08 0.62144,0.17029 0.65193,0.20099 0.0571,0.0571 -0.38573,1.64487 -0.45875,1.64487 -0.18173,0 -1.51768,-0.68926 -1.51768,-0.78305 0,-0.18776 0.55389,-1.23443 0.64588,-1.22055 0.0451,0.007 0.35054,0.0779 0.67862,0.15778 z m 8.54381,0.13391 c 0.3957,0.0421 0.40957,0.0602 0.64465,0.84215 0.13215,0.43952 0.19883,0.82748 0.14819,0.86215 -0.79544,0.54455 -0.90254,0.58041 -1.34119,0.44899 -0.43383,-0.12991 -0.43409,-0.13037 -0.54203,-0.91142 -0.10762,-0.77859 -0.10684,-0.78233 0.21358,-1.05194 0.17687,-0.14879 0.35551,-0.26213 0.39698,-0.25177 0.0415,0.01 0.25739,0.0383 0.47981,0.0619 z m -6.45235,0.40693 c 0.30801,0.0716 0.55193,0.1802 0.54205,0.24125 -0.01,0.0612 -0.0514,0.42401 -0.0924,0.80631 -0.0919,0.85863 -0.24675,0.93556 -1.16573,0.57921 -0.65555,-0.25419 -0.65555,-0.25419 -0.44573,-0.98789 0.1154,-0.40355 0.20981,-0.74648 0.20981,-0.76207 0,-0.0564 0.40345,-0.004 0.95199,0.12327 z m 4.3043,0.0592 c 0.41395,0.0746 0.46505,0.17051 0.61186,1.14956 0.0758,0.5056 0.0692,0.52073 -0.33361,0.75837 -0.3794,0.2239 -0.44646,0.23075 -0.87278,0.0891 -0.46179,-0.15351 -0.46179,-0.15351 -0.5354,-0.9286 -0.0656,-0.69052 -0.0489,-0.79644 0.1524,-0.97105 0.23447,-0.20336 0.33393,-0.21327 0.97753,-0.0973 z m -2.14832,0.14143 c 0.476,0.10888 0.476,0.10888 0.476,0.88377 0,0.69918 -0.0268,0.79239 -0.27508,0.95504 -0.25549,0.16744 -0.31731,0.16439 -0.86799,-0.0415 -0.59291,-0.22177 -0.59291,-0.22177 -0.55464,-0.73983 0.0867,-1.17455 0.21716,-1.28743 1.22171,-1.0575 z" /></g></g></svg>
